<svg id="visual" viewBox="0 0 2048 1080" width="2048" height="1080" xmlns="http://www.w3.org/2000/svg" xmlns:xlink="http://www.w3.org/1999/xlink" version="1.1"><g stroke-width="1" stroke-linejoin="bevel"><path d="M1104.8 438L902.2 217L889.2 412Z" fill="#b2b2c1" stroke="#b2b2c1"></path><path d="M1104.8 438L1157.8 217L902.2 217Z" fill="#c1c1cd" stroke="#c1c1cd"></path><path d="M1157.8 217L910.2 0L902.2 217Z" fill="#e0e0e6" stroke="#e0e0e6"></path><path d="M672.7 247L687.7 443L889.2 412Z" fill="#b2b2c1" stroke="#b2b2c1"></path><path d="M672.7 247L889.2 412L902.2 217Z" fill="#9494a9" stroke="#9494a9"></path><path d="M909.2 673L1125.8 665L1104.8 438Z" fill="#696a86" stroke="#696a86"></path><path d="M687.7 0L672.7 247L902.2 217Z" fill="#e0e0e6" stroke="#e0e0e6"></path><path d="M1157.8 217L1156.8 0L910.2 0Z" fill="#e0e0e6" stroke="#e0e0e6"></path><path d="M1389.3 392L1355.3 219L1157.8 217Z" fill="#ffffff" stroke="#ffffff"></path><path d="M1157.8 217L1358.3 0L1156.8 0Z" fill="#c1c1cd" stroke="#c1c1cd"></path><path d="M909.2 673L1104.8 438L889.2 412Z" fill="#86869d" stroke="#86869d"></path><path d="M1104.8 438L1389.3 392L1157.8 217Z" fill="#b2b2c1" stroke="#b2b2c1"></path><path d="M677.7 611L909.2 673L889.2 412Z" fill="#c1c1cd" stroke="#c1c1cd"></path><path d="M1337.3 667L1389.3 392L1104.8 438Z" fill="#b2b2c1" stroke="#b2b2c1"></path><path d="M450.1 611L677.7 611L687.7 443Z" fill="#ffffff" stroke="#ffffff"></path><path d="M687.7 443L677.7 611L889.2 412Z" fill="#e0e0e6" stroke="#e0e0e6"></path><path d="M910.2 0L687.7 0L902.2 217Z" fill="#c1c1cd" stroke="#c1c1cd"></path><path d="M1592.9 0L1358.3 0L1355.3 219Z" fill="#e0e0e6" stroke="#e0e0e6"></path><path d="M1355.3 219L1358.3 0L1157.8 217Z" fill="#777892" stroke="#777892"></path><path d="M1119.8 902L1337.3 667L1125.8 665Z" fill="#9494a9" stroke="#9494a9"></path><path d="M1125.8 665L1337.3 667L1104.8 438Z" fill="#9494a9" stroke="#9494a9"></path><path d="M667.7 862L928.2 826L909.2 673Z" fill="#9494a9" stroke="#9494a9"></path><path d="M909.2 673L928.2 826L1125.8 665Z" fill="#ffffff" stroke="#ffffff"></path><path d="M1389.3 392L1580.9 245L1355.3 219Z" fill="#9494a9" stroke="#9494a9"></path><path d="M1598.9 433L1580.9 245L1389.3 392Z" fill="#ffffff" stroke="#ffffff"></path><path d="M480.1 0L433.1 204L672.7 247Z" fill="#9494a9" stroke="#9494a9"></path><path d="M672.7 247L417.1 452L687.7 443Z" fill="#b2b2c1" stroke="#b2b2c1"></path><path d="M928.2 826L1119.8 902L1125.8 665Z" fill="#ffffff" stroke="#ffffff"></path><path d="M1557.9 680L1389.3 392L1337.3 667Z" fill="#efeff2" stroke="#efeff2"></path><path d="M1557.9 680L1598.9 433L1389.3 392Z" fill="#c1c1cd" stroke="#c1c1cd"></path><path d="M433.1 204L417.1 452L672.7 247Z" fill="#a3a3b5" stroke="#a3a3b5"></path><path d="M677.7 611L667.7 862L909.2 673Z" fill="#a3a3b5" stroke="#a3a3b5"></path><path d="M687.7 0L480.1 0L672.7 247Z" fill="#a3a3b5" stroke="#a3a3b5"></path><path d="M417.1 452L450.1 611L687.7 443Z" fill="#86869d" stroke="#86869d"></path><path d="M450.1 611L667.7 862L677.7 611Z" fill="#9494a9" stroke="#9494a9"></path><path d="M928.2 826L929.2 1080L1119.8 902Z" fill="#696a86" stroke="#696a86"></path><path d="M1392.3 889L1557.9 680L1337.3 667Z" fill="#e0e0e6" stroke="#e0e0e6"></path><path d="M1804.4 235L1592.9 0L1580.9 245Z" fill="#e0e0e6" stroke="#e0e0e6"></path><path d="M1580.9 245L1592.9 0L1355.3 219Z" fill="#86869d" stroke="#86869d"></path><path d="M1119.8 902L1392.3 889L1337.3 667Z" fill="#c1c1cd" stroke="#c1c1cd"></path><path d="M719.7 1080L929.2 1080L928.2 826Z" fill="#d0d0d9" stroke="#d0d0d9"></path><path d="M1119.8 902L1150.8 1080L1392.3 889Z" fill="#777892" stroke="#777892"></path><path d="M929.2 1080L1150.8 1080L1119.8 902Z" fill="#e0e0e6" stroke="#e0e0e6"></path><path d="M667.7 862L719.7 1080L928.2 826Z" fill="#efeff2" stroke="#efeff2"></path><path d="M450.1 611L489.1 903L667.7 862Z" fill="#c1c1cd" stroke="#c1c1cd"></path><path d="M230.6 677L489.1 903L450.1 611Z" fill="#9494a9" stroke="#9494a9"></path><path d="M1814.4 652L1827.4 448L1598.9 433Z" fill="#777892" stroke="#777892"></path><path d="M1598.9 433L1804.4 235L1580.9 245Z" fill="#c1c1cd" stroke="#c1c1cd"></path><path d="M1392.3 889L1616.9 824L1557.9 680Z" fill="#86869d" stroke="#86869d"></path><path d="M1624.9 1080L1616.9 824L1392.3 889Z" fill="#efeff2" stroke="#efeff2"></path><path d="M214.6 0L223.6 227L433.1 204Z" fill="#696a86" stroke="#696a86"></path><path d="M433.1 204L223.6 227L417.1 452Z" fill="#e0e0e6" stroke="#e0e0e6"></path><path d="M417.1 452L229.6 471L450.1 611Z" fill="#ffffff" stroke="#ffffff"></path><path d="M223.6 227L229.6 471L417.1 452Z" fill="#b2b2c1" stroke="#b2b2c1"></path><path d="M1827.4 448L1804.4 235L1598.9 433Z" fill="#c1c1cd" stroke="#c1c1cd"></path><path d="M489.1 903L719.7 1080L667.7 862Z" fill="#86869d" stroke="#86869d"></path><path d="M1814.4 652L1598.9 433L1557.9 680Z" fill="#9494a9" stroke="#9494a9"></path><path d="M1150.8 1080L1369.3 1080L1392.3 889Z" fill="#c1c1cd" stroke="#c1c1cd"></path><path d="M208.6 886L230.6 677L0 875Z" fill="#86869d" stroke="#86869d"></path><path d="M229.6 471L230.6 677L450.1 611Z" fill="#c1c1cd" stroke="#c1c1cd"></path><path d="M480.1 0L214.6 0L433.1 204Z" fill="#a3a3b5" stroke="#a3a3b5"></path><path d="M0 627L230.6 677L229.6 471Z" fill="#b2b2c1" stroke="#b2b2c1"></path><path d="M1796.4 834L1814.4 652L1616.9 824Z" fill="#c1c1cd" stroke="#c1c1cd"></path><path d="M1616.9 824L1814.4 652L1557.9 680Z" fill="#ffffff" stroke="#ffffff"></path><path d="M2048 217L1818.4 0L1804.4 235Z" fill="#efeff2" stroke="#efeff2"></path><path d="M1804.4 235L1818.4 0L1592.9 0Z" fill="#777892" stroke="#777892"></path><path d="M208.6 886L473.1 1080L489.1 903Z" fill="#b2b2c1" stroke="#b2b2c1"></path><path d="M489.1 903L473.1 1080L719.7 1080Z" fill="#86869d" stroke="#86869d"></path><path d="M1624.9 1080L1796.4 834L1616.9 824Z" fill="#e0e0e6" stroke="#e0e0e6"></path><path d="M1369.3 1080L1624.9 1080L1392.3 889Z" fill="#b2b2c1" stroke="#b2b2c1"></path><path d="M0 236L229.6 471L223.6 227Z" fill="#777892" stroke="#777892"></path><path d="M230.6 677L208.6 886L489.1 903Z" fill="#9494a9" stroke="#9494a9"></path><path d="M0 0L0 236L223.6 227Z" fill="#9494a9" stroke="#9494a9"></path><path d="M0 236L0 468L229.6 471Z" fill="#a3a3b5" stroke="#a3a3b5"></path><path d="M2048 434L2048 217L1804.4 235Z" fill="#efeff2" stroke="#efeff2"></path><path d="M2048 434L1804.4 235L1827.4 448Z" fill="#696a86" stroke="#696a86"></path><path d="M2048 434L1827.4 448L2048 650Z" fill="#a3a3b5" stroke="#a3a3b5"></path><path d="M2048 650L1827.4 448L1814.4 652Z" fill="#efeff2" stroke="#efeff2"></path><path d="M0 468L0 627L229.6 471Z" fill="#d0d0d9" stroke="#d0d0d9"></path><path d="M214.6 0L0 0L223.6 227Z" fill="#86869d" stroke="#86869d"></path><path d="M1624.9 1080L1782.4 1080L1796.4 834Z" fill="#d0d0d9" stroke="#d0d0d9"></path><path d="M2048 844L2048 650L1814.4 652Z" fill="#efeff2" stroke="#efeff2"></path><path d="M2048 217L2048 0L1818.4 0Z" fill="#ffffff" stroke="#ffffff"></path><path d="M2048 844L1814.4 652L1796.4 834Z" fill="#e0e0e6" stroke="#e0e0e6"></path><path d="M0 1080L203.6 1080L208.6 886Z" fill="#e0e0e6" stroke="#e0e0e6"></path><path d="M208.6 886L203.6 1080L473.1 1080Z" fill="#e0e0e6" stroke="#e0e0e6"></path><path d="M0 627L0 875L230.6 677Z" fill="#d0d0d9" stroke="#d0d0d9"></path><path d="M2048 1080L2048 844L1796.4 834Z" fill="#efeff2" stroke="#efeff2"></path><path d="M0 875L0 1080L208.6 886Z" fill="#b2b2c1" stroke="#b2b2c1"></path><path d="M1782.4 1080L2048 1080L1796.4 834Z" fill="#b2b2c1" stroke="#b2b2c1"></path></g></svg>